<svg xmlns="http://www.w3.org/2000/svg" viewBox="0 0 256 70" role="img" aria-label="Dakar Rally">
<rect width="256" height="70" fill="none"/>
<g transform="translate(10 4)" fill="#fff">
<path d="M19 5c8-5 19-4 27 1-7 2-13 5-19 10-8 0-14-2-20-4 4-3 8-5 12-7zm-8 13c10 4 22 4 34 1-3 5-7 9-11 13-9 0-18-3-26-7 1-3 2-5 3-7zm4 12c6 3 12 6 19 7-2 5-3 10-3 15-8-4-14-9-20-15 1-2 2-5 4-7z"/>
<path d="M42 31c6 3 11 7 16 12l-5 8c-6-4-11-8-17-11 2-3 4-6 6-9z"/>
<text x="69" y="43" font-family="Arial Black,Arial,sans-serif" font-size="35" font-style="italic" font-weight="900">DAKAR</text>
<text x="71" y="58" font-family="Arial,Helvetica,sans-serif" font-size="12" font-weight="700" letter-spacing="2">RALLY</text>
</g></svg>